# Blender 3.3.1
# www.blender.org
o Cube.001
v 0.312500 -0.437500 0.312500
v 0.312500 -1.062500 0.312500
v -0.312500 -0.437500 0.312500
v -0.312500 -1.062500 0.312500
v 0.312500 -0.437500 -0.312500
v 0.312500 -1.062500 -0.312500
v -0.312500 -0.437500 -0.312500
v -0.312500 -1.062500 -0.312500
v 0.500000 0.500000 0.500000
v 0.500000 -0.500000 0.500000
v -0.500000 0.500000 0.500000
v -0.500000 -0.500000 0.500000
v 0.500000 0.500000 -0.500000
v 0.500000 -0.500000 -0.500000
v -0.500000 0.500000 -0.500000
v -0.500000 -0.500000 -0.500000
vn -0.0000 1.0000 -0.0000
vn -1.0000 -0.0000 -0.0000
vn -0.0000 -0.0000 -1.0000
vn -0.0000 -1.0000 -0.0000
vn -0.0000 -0.0000 1.0000
vn 1.0000 -0.0000 -0.0000
vt 0.625000 0.500000
vt 0.906250 0.187500
vt 0.906250 0.812500
vt 0.906250 0.187500
vt 0.593750 0.187500
vt 0.593750 0.812500
vt 0.625000 0.750000
vt 0.906250 0.187500
vt 0.906250 0.812500
vt 0.593750 0.187500
vt 0.906250 0.812500
vt 0.593750 0.812500
vt 0.875000 0.500000
vt 0.906250 0.812500
vt 0.906250 0.187500
vt 0.593750 0.812500
vt 0.593750 0.187500
vt 0.875000 0.750000
vt 0.906250 0.812500
vt 0.906250 0.187500
vt 0.593750 0.187500
vt 0.593750 0.812500
vt 0.000000 0.000000
vt 0.500000 0.000000
vt 0.500000 1.000000
vt 0.500000 0.000000
vt 0.000000 0.000000
vt 0.000000 1.000000
vt 0.000000 1.000000
vt 0.500000 0.000000
vt 0.500000 1.000000
vt 0.000000 0.000000
vt 0.500000 1.000000
vt 0.000000 1.000000
vt 0.500000 1.000000
vt 0.500000 0.000000
vt 0.000000 1.000000
vt 0.000000 0.000000
vt 0.500000 1.000000
vt 0.500000 0.000000
vt 0.000000 0.000000
vt 0.000000 1.000000
s 0
f 1/1/1 5/13/1 7/18/1 3/7/1
f 4/10/2 3/8/2 7/19/2 8/22/2
f 8/21/3 7/20/3 5/14/3 6/16/3
f 6/17/4 2/4/4 4/11/4 8/22/4
f 2/5/5 1/2/5 3/9/5 4/12/5
f 6/17/6 5/15/6 1/3/6 2/6/6
f 9/23/1 13/36/1 15/39/1 11/29/1
f 12/32/2 11/30/2 15/39/2 16/42/2
f 16/41/3 15/40/3 13/35/3 14/37/3
f 14/38/4 10/26/4 12/33/4 16/42/4
f 10/27/5 9/24/5 11/31/5 12/34/5
f 14/38/6 13/36/6 9/25/6 10/28/6
